STARTFONT 2.1
COMMENT
COMMENT Converted from TrueType font "c:\tt2bdf26\persian.ttf" by "ttf2bdf 2.6".
COMMENT
FONT -FreeType-Persian-Medium-R-Normal--17-120-100-100-P-86-ISO10646-1
SIZE 12 100 100
FONTBOUNDINGBOX 19 21 0 -6
STARTPROPERTIES 20
FOUNDRY "FreeType"
FAMILY_NAME "Persian"
WEIGHT_NAME "Medium"
SLANT "R"
SETWIDTH_NAME "Normal"
ADD_STYLE_NAME ""
PIXEL_SIZE 17
POINT_SIZE 120
RESOLUTION_X 100
RESOLUTION_Y 100
SPACING "P"
AVERAGE_WIDTH 86
CHARSET_REGISTRY "ISO10646"
CHARSET_ENCODING "1"
FONT_ASCENT 14
FONT_DESCENT 6
COPYRIGHT "Based on "Nimrooz" Font. © 2000 Oriental Newspaper Ltd. "
_TTF_FONTFILE "c:\tt2bdf26\persian.ttf"
_TTF_PSNAME "PersianNimrooz"
_XFREE86_GLYPH_RANGES "32_129 141_144 157_158 160_180 202 224_254 338_339 352_353 376 381_382 402 710 713 732 8208 8211_8212 8216_8218 8220_8222 8224_8226 8230 8240 8249_8250 8364 8482 8722"
ENDPROPERTIES
CHARS 187
STARTCHAR 0020
ENCODING 32
SWIDTH 360 0
DWIDTH 6 0
BBX 1 1 0 0
BITMAP
00
ENDCHAR
STARTCHAR 0021
ENCODING 33
SWIDTH 300 0
DWIDTH 5 0
BBX 2 10 3 0
BITMAP
40
C0
C0
40
40
40
40
00
C0
C0
ENDCHAR
STARTCHAR 0022
ENCODING 34
SWIDTH 300 0
DWIDTH 5 0
BBX 3 4 2 9
BITMAP
A0
A0
A0
A0
ENDCHAR
STARTCHAR 0023
ENCODING 35
SWIDTH 540 0
DWIDTH 9 0
BBX 9 12 2 0
BITMAP
1100
1100
2200
FF80
FF80
2200
6600
FF80
4400
4400
4400
8800
ENDCHAR
STARTCHAR 0024
ENCODING 36
SWIDTH 540 0
DWIDTH 9 0
BBX 8 15 2 -2
BITMAP
10
7E
D2
92
90
D0
78
1E
11
11
D1
D3
7E
10
10
ENDCHAR
STARTCHAR 0025
ENCODING 37
SWIDTH 540 0
DWIDTH 9 0
BBX 7 14 3 -1
BITMAP
02
64
64
08
08
10
10
30
20
20
40
48
8C
80
ENDCHAR
STARTCHAR 0026
ENCODING 38
SWIDTH 660 0
DWIDTH 11 0
BBX 10 12 2 0
BITMAP
1C00
2200
2200
3200
1C00
3800
6C80
C580
8380
8180
47C0
3C40
ENDCHAR
STARTCHAR 0027
ENCODING 39
SWIDTH 300 0
DWIDTH 5 0
BBX 1 4 3 8
BITMAP
80
80
80
80
ENDCHAR
STARTCHAR 0028
ENCODING 40
SWIDTH 360 0
DWIDTH 6 0
BBX 4 18 2 -3
BITMAP
10
20
20
40
40
40
C0
80
80
80
80
80
40
40
40
20
20
10
ENDCHAR
STARTCHAR 0029
ENCODING 41
SWIDTH 360 0
DWIDTH 6 0
BBX 3 18 2 -3
BITMAP
80
40
40
40
20
20
20
20
20
20
20
20
20
20
40
40
40
80
ENDCHAR
STARTCHAR 002A
ENCODING 42
SWIDTH 660 0
DWIDTH 11 0
BBX 8 7 3 3
BITMAP
D2
F6
38
FF
38
F6
D2
ENDCHAR
STARTCHAR 002B
ENCODING 43
SWIDTH 600 0
DWIDTH 10 0
BBX 9 8 2 1
BITMAP
0800
0800
0800
FF80
0800
0800
0800
0800
ENDCHAR
STARTCHAR 002C
ENCODING 44
SWIDTH 300 0
DWIDTH 5 0
BBX 3 4 2 -2
BITMAP
60
60
40
80
ENDCHAR
STARTCHAR 002D
ENCODING 45
SWIDTH 600 0
DWIDTH 10 0
BBX 9 1 2 5
BITMAP
FF80
ENDCHAR
STARTCHAR 002E
ENCODING 46
SWIDTH 300 0
DWIDTH 5 0
BBX 2 2 3 0
BITMAP
C0
C0
ENDCHAR
STARTCHAR 002F
ENCODING 47
SWIDTH 360 0
DWIDTH 6 0
BBX 5 16 1 -3
BITMAP
08
08
10
10
10
10
20
20
20
20
40
40
40
40
80
80
ENDCHAR
STARTCHAR 0030
ENCODING 48
SWIDTH 660 0
DWIDTH 11 0
BBX 9 13 3 0
BITMAP
3C00
4200
8100
8100
8100
8080
8080
8080
8100
8100
8100
4200
3C00
ENDCHAR
STARTCHAR 0031
ENCODING 49
SWIDTH 660 0
DWIDTH 11 0
BBX 4 12 5 0
BITMAP
70
D0
10
10
10
10
10
10
10
10
10
10
ENDCHAR
STARTCHAR 0032
ENCODING 50
SWIDTH 660 0
DWIDTH 11 0
BBX 8 13 3 0
BITMAP
3E
63
C1
01
03
06
0C
18
60
40
C0
C0
FF
ENDCHAR
STARTCHAR 0033
ENCODING 51
SWIDTH 660 0
DWIDTH 11 0
BBX 8 13 3 0
BITMAP
3C
42
C2
02
06
38
1E
03
01
01
01
C2
7C
ENDCHAR
STARTCHAR 0034
ENCODING 52
SWIDTH 660 0
DWIDTH 11 0
BBX 9 12 2 0
BITMAP
0300
0700
0E00
1A00
1200
2200
4200
FF80
0200
0200
0200
0200
ENDCHAR
STARTCHAR 0035
ENCODING 53
SWIDTH 660 0
DWIDTH 11 0
BBX 7 12 3 0
BITMAP
7E
40
40
40
70
7C
06
02
02
02
C6
78
ENDCHAR
STARTCHAR 0036
ENCODING 54
SWIDTH 660 0
DWIDTH 11 0
BBX 8 13 3 0
BITMAP
3E
62
43
80
80
80
BC
C2
81
81
81
42
3C
ENDCHAR
STARTCHAR 0037
ENCODING 55
SWIDTH 660 0
DWIDTH 11 0
BBX 8 12 3 0
BITMAP
FF
03
02
04
0C
08
10
10
20
20
20
20
ENDCHAR
STARTCHAR 0038
ENCODING 56
SWIDTH 660 0
DWIDTH 11 0
BBX 8 13 3 0
BITMAP
3C
C2
81
81
82
44
7E
C2
81
81
81
C2
3C
ENDCHAR
STARTCHAR 0039
ENCODING 57
SWIDTH 660 0
DWIDTH 11 0
BBX 8 13 3 0
BITMAP
3C
42
82
81
81
81
43
3D
01
01
02
C6
78
ENDCHAR
STARTCHAR 003A
ENCODING 58
SWIDTH 360 0
DWIDTH 6 0
BBX 2 7 3 0
BITMAP
C0
C0
00
00
00
C0
C0
ENDCHAR
STARTCHAR 003B
ENCODING 59
SWIDTH 360 0
DWIDTH 6 0
BBX 3 9 3 -2
BITMAP
60
60
00
00
00
60
60
40
80
ENDCHAR
STARTCHAR 003C
ENCODING 60
SWIDTH 600 0
DWIDTH 10 0
BBX 8 8 2 2
BITMAP
01
06
38
E0
E0
38
06
01
ENDCHAR
STARTCHAR 003D
ENCODING 61
SWIDTH 600 0
DWIDTH 10 0
BBX 9 3 2 4
BITMAP
FF80
0000
FF80
ENDCHAR
STARTCHAR 003E
ENCODING 62
SWIDTH 600 0
DWIDTH 10 0
BBX 8 8 2 2
BITMAP
C0
70
0C
03
03
0C
70
C0
ENDCHAR
STARTCHAR 003F
ENCODING 63
SWIDTH 540 0
DWIDTH 9 0
BBX 8 12 2 0
BITMAP
3C
63
C1
01
03
06
0C
18
18
00
18
18
ENDCHAR
STARTCHAR 0040
ENCODING 64
SWIDTH 1020 0
DWIDTH 17 0
BBX 16 15 2 -3
BITMAP
07E0
1C18
3004
23D2
4472
4832
8822
9022
9062
4864
48EC
4770
2003
180C
07F0
ENDCHAR
STARTCHAR 0041
ENCODING 65
SWIDTH 660 0
DWIDTH 11 0
BBX 10 12 2 0
BITMAP
0C00
1400
1600
1200
2300
2300
2100
7F80
4080
C040
C040
8040
ENDCHAR
STARTCHAR 0042
ENCODING 66
SWIDTH 660 0
DWIDTH 11 0
BBX 9 12 3 0
BITMAP
FE00
8100
8080
8080
8100
FE00
8100
8080
8080
8080
8100
FE00
ENDCHAR
STARTCHAR 0043
ENCODING 67
SWIDTH 720 0
DWIDTH 12 0
BBX 11 12 2 0
BITMAP
1F00
20C0
4040
4000
8000
8000
8000
8000
4060
4040
20C0
1F00
ENDCHAR
STARTCHAR 0044
ENCODING 68
SWIDTH 720 0
DWIDTH 12 0
BBX 10 12 3 0
BITMAP
FE00
8100
8080
8080
8040
8040
8040
8040
8080
8080
8100
FE00
ENDCHAR
STARTCHAR 0045
ENCODING 69
SWIDTH 660 0
DWIDTH 11 0
BBX 9 12 3 0
BITMAP
FF80
8000
8000
8000
8000
FF00
8000
8000
8000
8000
8000
FF80
ENDCHAR
STARTCHAR 0046
ENCODING 70
SWIDTH 600 0
DWIDTH 10 0
BBX 8 12 3 0
BITMAP
FF
80
80
80
80
FE
80
80
80
80
80
80
ENDCHAR
STARTCHAR 0047
ENCODING 71
SWIDTH 780 0
DWIDTH 13 0
BBX 11 12 2 0
BITMAP
0F80
30C0
4060
4020
4000
8000
83E0
8020
4020
6020
3060
0F80
ENDCHAR
STARTCHAR 0048
ENCODING 72
SWIDTH 720 0
DWIDTH 12 0
BBX 9 12 3 0
BITMAP
8080
8080
8080
8080
8080
FF80
8080
8080
8080
8080
8080
8080
ENDCHAR
STARTCHAR 0049
ENCODING 73
SWIDTH 300 0
DWIDTH 5 0
BBX 1 12 3 0
BITMAP
80
80
80
80
80
80
80
80
80
80
80
80
ENDCHAR
STARTCHAR 004A
ENCODING 74
SWIDTH 480 0
DWIDTH 8 0
BBX 7 12 2 0
BITMAP
02
02
02
02
02
02
02
02
42
C2
C4
78
ENDCHAR
STARTCHAR 004B
ENCODING 75
SWIDTH 660 0
DWIDTH 11 0
BBX 8 12 3 0
BITMAP
81
82
84
98
B0
F0
C8
8C
84
82
81
81
ENDCHAR
STARTCHAR 004C
ENCODING 76
SWIDTH 540 0
DWIDTH 9 0
BBX 7 12 3 0
BITMAP
80
80
80
80
80
80
80
80
80
80
80
FE
ENDCHAR
STARTCHAR 004D
ENCODING 77
SWIDTH 840 0
DWIDTH 14 0
BBX 12 12 3 0
BITMAP
8030
C030
C050
E050
A090
B090
9190
9110
9910
8A10
8E10
8410
ENDCHAR
STARTCHAR 004E
ENCODING 78
SWIDTH 720 0
DWIDTH 12 0
BBX 10 12 3 0
BITMAP
8040
8040
C040
A040
A040
9040
8840
8C40
8440
8240
8140
81C0
ENDCHAR
STARTCHAR 004F
ENCODING 79
SWIDTH 780 0
DWIDTH 13 0
BBX 12 12 2 0
BITMAP
0F80
3040
4020
4010
8010
8010
8010
8010
4010
4020
3040
0F80
ENDCHAR
STARTCHAR 0050
ENCODING 80
SWIDTH 660 0
DWIDTH 11 0
BBX 9 12 3 0
BITMAP
FE00
8100
8080
8080
8080
8100
FE00
8000
8000
8000
8000
8000
ENDCHAR
STARTCHAR 0051
ENCODING 81
SWIDTH 780 0
DWIDTH 13 0
BBX 12 13 2 -1
BITMAP
0F80
3040
4020
4010
8010
8010
8010
8010
4010
43A0
31C0
1FE0
0030
ENDCHAR
STARTCHAR 0052
ENCODING 82
SWIDTH 720 0
DWIDTH 12 0
BBX 10 12 3 0
BITMAP
FF00
8080
8040
8040
80C0
FF80
8400
8200
8300
8180
8180
80C0
ENDCHAR
STARTCHAR 0053
ENCODING 83
SWIDTH 660 0
DWIDTH 11 0
BBX 10 12 2 0
BITMAP
3E00
4180
8080
8000
6000
3F00
0780
00C0
C040
C040
7080
1F00
ENDCHAR
STARTCHAR 0054
ENCODING 84
SWIDTH 600 0
DWIDTH 10 0
BBX 9 12 2 0
BITMAP
FF80
0800
0800
0800
0800
0800
0800
0800
0800
0800
0800
0800
ENDCHAR
STARTCHAR 0055
ENCODING 85
SWIDTH 720 0
DWIDTH 12 0
BBX 9 12 3 0
BITMAP
8080
8080
8080
8080
8080
8080
8080
8080
8080
8100
4100
3E00
ENDCHAR
STARTCHAR 0056
ENCODING 86
SWIDTH 660 0
DWIDTH 11 0
BBX 10 12 2 0
BITMAP
8040
C0C0
40C0
6080
6180
2100
3100
3300
1200
1E00
0C00
0C00
ENDCHAR
STARTCHAR 0057
ENCODING 87
SWIDTH 900 0
DWIDTH 15 0
BBX 15 12 2 0
BITMAP
8382
C286
C284
4284
46C4
644C
6448
2C48
2868
2838
3830
1830
ENDCHAR
STARTCHAR 0058
ENCODING 88
SWIDTH 660 0
DWIDTH 11 0
BBX 10 12 2 0
BITMAP
4080
2180
3100
1200
0C00
0C00
0E00
1A00
3300
6180
6080
C0C0
ENDCHAR
STARTCHAR 0059
ENCODING 89
SWIDTH 660 0
DWIDTH 11 0
BBX 10 12 2 0
BITMAP
C0C0
4080
6180
3300
1200
0E00
0C00
0400
0400
0400
0400
0400
ENDCHAR
STARTCHAR 005A
ENCODING 90
SWIDTH 600 0
DWIDTH 10 0
BBX 9 12 2 0
BITMAP
FF80
0100
0200
0600
0400
0800
1000
2000
6000
4000
8000
FF80
ENDCHAR
STARTCHAR 005B
ENCODING 91
SWIDTH 300 0
DWIDTH 5 0
BBX 3 15 2 -2
BITMAP
E0
80
80
80
80
80
80
80
80
80
80
80
80
80
E0
ENDCHAR
STARTCHAR 005C
ENCODING 92
SWIDTH 360 0
DWIDTH 6 0
BBX 4 16 2 -3
BITMAP
80
80
80
80
40
40
40
40
20
20
20
20
10
10
10
10
ENDCHAR
STARTCHAR 005D
ENCODING 93
SWIDTH 300 0
DWIDTH 5 0
BBX 3 15 2 -2
BITMAP
E0
20
20
20
20
20
20
20
20
20
20
20
20
20
E0
ENDCHAR
STARTCHAR 005E
ENCODING 94
SWIDTH 480 0
DWIDTH 8 0
BBX 7 6 2 6
BITMAP
10
28
28
44
44
82
ENDCHAR
STARTCHAR 005F
ENCODING 95
SWIDTH 540 0
DWIDTH 9 0
BBX 10 1 1 -4
BITMAP
FFC0
ENDCHAR
STARTCHAR 0060
ENCODING 96
SWIDTH 300 0
DWIDTH 5 0
BBX 2 2 3 10
BITMAP
80
40
ENDCHAR
STARTCHAR 0061
ENCODING 97
SWIDTH 540 0
DWIDTH 9 0
BBX 8 9 2 0
BITMAP
3E
42
C3
07
7F
C3
83
87
7B
ENDCHAR
STARTCHAR 0062
ENCODING 98
SWIDTH 540 0
DWIDTH 9 0
BBX 8 12 3 0
BITMAP
80
80
80
BC
C6
82
82
81
82
82
C6
F8
ENDCHAR
STARTCHAR 0063
ENCODING 99
SWIDTH 480 0
DWIDTH 8 0
BBX 8 9 2 0
BITMAP
3C
46
82
80
80
80
83
46
3C
ENDCHAR
STARTCHAR 0064
ENCODING 100
SWIDTH 540 0
DWIDTH 9 0
BBX 8 12 2 0
BITMAP
01
01
01
3D
43
81
81
81
81
C1
43
3D
ENDCHAR
STARTCHAR 0065
ENCODING 101
SWIDTH 540 0
DWIDTH 9 0
BBX 8 9 2 0
BITMAP
3C
62
C3
C1
FF
80
83
43
3C
ENDCHAR
STARTCHAR 0066
ENCODING 102
SWIDTH 300 0
DWIDTH 5 0
BBX 5 12 2 0
BITMAP
78
40
40
F0
40
40
40
40
40
40
40
40
ENDCHAR
STARTCHAR 0067
ENCODING 103
SWIDTH 540 0
DWIDTH 9 0
BBX 8 12 2 -3
BITMAP
3D
43
81
81
81
81
81
43
3D
01
C2
7C
ENDCHAR
STARTCHAR 0068
ENCODING 104
SWIDTH 540 0
DWIDTH 9 0
BBX 7 12 3 0
BITMAP
80
80
80
B8
C4
84
82
82
82
82
82
82
ENDCHAR
STARTCHAR 0069
ENCODING 105
SWIDTH 240 0
DWIDTH 4 0
BBX 1 12 3 0
BITMAP
80
00
00
80
80
80
80
80
80
80
80
80
ENDCHAR
STARTCHAR 006A
ENCODING 106
SWIDTH 240 0
DWIDTH 4 0
BBX 3 15 1 -3
BITMAP
20
00
00
20
20
20
20
20
20
20
20
20
20
20
C0
ENDCHAR
STARTCHAR 006B
ENCODING 107
SWIDTH 480 0
DWIDTH 8 0
BBX 6 12 3 0
BITMAP
80
80
80
8C
98
B0
E0
E0
90
98
88
84
ENDCHAR
STARTCHAR 006C
ENCODING 108
SWIDTH 240 0
DWIDTH 4 0
BBX 1 12 3 0
BITMAP
80
80
80
80
80
80
80
80
80
80
80
80
ENDCHAR
STARTCHAR 006D
ENCODING 109
SWIDTH 840 0
DWIDTH 14 0
BBX 12 9 3 0
BITMAP
B9E0
C620
8210
8210
8210
8210
8210
8210
8210
ENDCHAR
STARTCHAR 006E
ENCODING 110
SWIDTH 540 0
DWIDTH 9 0
BBX 7 9 3 0
BITMAP
B8
C4
84
82
82
82
82
82
82
ENDCHAR
STARTCHAR 006F
ENCODING 111
SWIDTH 540 0
DWIDTH 9 0
BBX 8 9 2 0
BITMAP
3C
42
81
81
81
81
81
42
3C
ENDCHAR
STARTCHAR 0070
ENCODING 112
SWIDTH 540 0
DWIDTH 9 0
BBX 8 12 3 -3
BITMAP
BC
C6
82
82
81
82
82
C6
F8
80
80
80
ENDCHAR
STARTCHAR 0071
ENCODING 113
SWIDTH 540 0
DWIDTH 9 0
BBX 8 12 2 -3
BITMAP
3D
43
81
81
81
81
C1
43
3D
01
01
01
ENDCHAR
STARTCHAR 0072
ENCODING 114
SWIDTH 300 0
DWIDTH 5 0
BBX 4 9 3 0
BITMAP
F0
90
80
80
80
80
80
80
80
ENDCHAR
STARTCHAR 0073
ENCODING 115
SWIDTH 480 0
DWIDTH 8 0
BBX 7 9 2 0
BITMAP
7C
86
86
E0
7C
06
C2
C2
7C
ENDCHAR
STARTCHAR 0074
ENCODING 116
SWIDTH 300 0
DWIDTH 5 0
BBX 4 12 2 0
BITMAP
40
40
40
F0
40
40
40
40
40
40
40
70
ENDCHAR
STARTCHAR 0075
ENCODING 117
SWIDTH 540 0
DWIDTH 9 0
BBX 7 9 3 0
BITMAP
82
82
82
82
82
82
86
86
7A
ENDCHAR
STARTCHAR 0076
ENCODING 118
SWIDTH 480 0
DWIDTH 8 0
BBX 7 9 2 0
BITMAP
82
C2
46
44
64
2C
28
38
18
ENDCHAR
STARTCHAR 0077
ENCODING 119
SWIDTH 720 0
DWIDTH 12 0
BBX 11 9 2 0
BITMAP
8420
8E20
CA20
4A40
4A40
5B40
71C0
3180
3180
ENDCHAR
STARTCHAR 0078
ENCODING 120
SWIDTH 480 0
DWIDTH 8 0
BBX 7 9 2 0
BITMAP
C6
44
28
38
18
38
6C
46
C2
ENDCHAR
STARTCHAR 0079
ENCODING 121
SWIDTH 480 0
DWIDTH 8 0
BBX 8 12 2 -3
BITMAP
83
C2
46
64
64
2C
38
18
10
10
30
E0
ENDCHAR
STARTCHAR 007A
ENCODING 122
SWIDTH 480 0
DWIDTH 8 0
BBX 8 9 2 0
BITMAP
FE
04
08
18
10
20
40
80
FF
ENDCHAR
STARTCHAR 007B
ENCODING 123
SWIDTH 300 0
DWIDTH 5 0
BBX 5 15 1 -2
BITMAP
18
30
20
20
20
20
60
80
60
20
20
20
20
30
18
ENDCHAR
STARTCHAR 007C
ENCODING 124
SWIDTH 240 0
DWIDTH 4 0
BBX 1 15 3 -2
BITMAP
80
80
80
80
80
80
80
80
80
80
80
80
80
80
80
ENDCHAR
STARTCHAR 007D
ENCODING 125
SWIDTH 300 0
DWIDTH 5 0
BBX 5 15 1 -2
BITMAP
E0
20
20
20
20
20
30
08
10
20
20
20
20
20
E0
ENDCHAR
STARTCHAR 007E
ENCODING 126
SWIDTH 540 0
DWIDTH 9 0
BBX 9 2 1 5
BITMAP
7880
8700
ENDCHAR
STARTCHAR 007F
ENCODING 127
SWIDTH 420 0
DWIDTH 7 0
BBX 5 10 2 0
BITMAP
90
00
00
20
30
58
48
88
88
70
ENDCHAR
STARTCHAR 0080
ENCODING 128
SWIDTH 660 0
DWIDTH 11 0
BBX 2 5 6 1
BITMAP
80
C0
C0
C0
40
ENDCHAR
STARTCHAR 0081
ENCODING 129
SWIDTH 660 0
DWIDTH 11 0
BBX 3 9 5 1
BITMAP
C0
40
60
60
20
20
20
20
20
ENDCHAR
STARTCHAR 008D
ENCODING 141
SWIDTH 360 0
DWIDTH 6 0
BBX 5 13 2 1
BITMAP
F8
00
00
00
20
30
10
10
10
10
10
10
10
ENDCHAR
STARTCHAR 008E
ENCODING 142
SWIDTH 420 0
DWIDTH 7 0
BBX 8 14 0 0
BITMAP
06
08
06
08
00
00
00
00
00
03
01
01
01
FF
ENDCHAR
STARTCHAR 008F
ENCODING 143
SWIDTH 540 0
DWIDTH 9 0
BBX 5 5 4 0
BITMAP
70
90
80
D8
70
ENDCHAR
STARTCHAR 0090
ENCODING 144
SWIDTH 300 0
DWIDTH 5 0
BBX 1 10 4 0
BITMAP
80
80
80
80
80
80
80
80
80
80
ENDCHAR
STARTCHAR 009D
ENCODING 157
SWIDTH 720 0
DWIDTH 12 0
BBX 13 12 0 -6
BITMAP
0300
0C80
0040
0060
0030
FFF8
0000
0000
0800
0D80
0000
0600
ENDCHAR
STARTCHAR 009E
ENCODING 158
SWIDTH 600 0
DWIDTH 10 0
BBX 9 12 2 -6
BITMAP
7F00
9F00
3800
6000
4000
8000
8000
8000
C000
6000
7F80
1F00
ENDCHAR
STARTCHAR 00A0
ENCODING 160
SWIDTH 600 0
DWIDTH 10 0
BBX 9 16 2 -6
BITMAP
0800
0000
0000
0000
7F00
9F00
3800
6000
4000
8000
8000
8000
C000
6000
7F80
1F00
ENDCHAR
STARTCHAR 00A1
ENCODING 161
SWIDTH 720 0
DWIDTH 12 0
BBX 13 10 0 0
BITMAP
0200
0000
0000
0000
0000
0780
00C0
0060
0030
FFF8
ENDCHAR
STARTCHAR 00A2
ENCODING 162
SWIDTH 480 0
DWIDTH 8 0
BBX 5 6 4 0
BITMAP
30
18
08
08
08
F8
ENDCHAR
STARTCHAR 00A3
ENCODING 163
SWIDTH 480 0
DWIDTH 8 0
BBX 5 11 4 0
BITMAP
20
00
00
00
10
10
18
08
08
08
F8
ENDCHAR
STARTCHAR 00A4
ENCODING 164
SWIDTH 480 0
DWIDTH 8 0
BBX 7 9 2 -4
BITMAP
04
04
06
02
02
06
0C
18
F0
ENDCHAR
STARTCHAR 00A5
ENCODING 165
SWIDTH 480 0
DWIDTH 8 0
BBX 7 14 2 -4
BITMAP
08
00
00
00
00
04
04
06
02
02
06
0C
18
F0
ENDCHAR
STARTCHAR 00A6
ENCODING 166
SWIDTH 480 0
DWIDTH 8 0
BBX 7 17 2 -4
BITMAP
20
00
00
48
08
00
00
00
04
04
06
02
02
06
0C
18
F0
ENDCHAR
STARTCHAR 00A7
ENCODING 167
SWIDTH 1020 0
DWIDTH 17 0
BBX 15 8 3 -4
BITMAP
0102
0122
8112
80EE
8080
8100
C300
7C00
ENDCHAR
STARTCHAR 00A8
ENCODING 168
SWIDTH 720 0
DWIDTH 12 0
BBX 13 5 0 0
BITMAP
0008
0898
0888
0C48
FFF8
ENDCHAR
STARTCHAR 00A9
ENCODING 169
SWIDTH 1020 0
DWIDTH 17 0
BBX 15 17 3 -4
BITMAP
0010
0000
0000
0044
0024
0000
0000
0000
0000
0102
0122
8112
80EE
8080
8100
C300
7C00
ENDCHAR
STARTCHAR 00AA
ENCODING 170
SWIDTH 720 0
DWIDTH 12 0
BBX 13 13 0 0
BITMAP
0080
0000
0000
0100
0010
0000
0000
0000
0008
0898
0888
0C48
FFF8
ENDCHAR
STARTCHAR 00AB
ENCODING 171
SWIDTH 1080 0
DWIDTH 18 0
BBX 16 9 3 -4
BITMAP
000E
0111
00A1
80C1
80FF
8100
8100
C200
7C00
ENDCHAR
STARTCHAR 00AC
ENCODING 172
SWIDTH 780 0
DWIDTH 13 0
BBX 14 5 0 0
BITMAP
0038
0844
0884
0D04
F7FC
ENDCHAR
STARTCHAR 00AD
ENCODING 173
SWIDTH 1080 0
DWIDTH 18 0
BBX 16 14 3 -4
BITMAP
0010
0000
0000
0000
0000
000E
0111
00A1
80C1
80FF
8100
8100
C200
7C00
ENDCHAR
STARTCHAR 00AE
ENCODING 174
SWIDTH 780 0
DWIDTH 13 0
BBX 14 10 0 0
BITMAP
0040
0000
0000
0000
0000
0038
0844
0884
0D04
F7FC
ENDCHAR
STARTCHAR 00AF
ENCODING 175
SWIDTH 600 0
DWIDTH 10 0
BBX 11 11 0 0
BITMAP
1800
0800
0800
0800
0400
0400
05C0
0A20
0420
0820
FFE0
ENDCHAR
STARTCHAR 00B0
ENCODING 176
SWIDTH 600 0
DWIDTH 10 0
BBX 9 16 2 -6
BITMAP
0800
0000
0000
0000
7F00
9F00
3800
6000
4000
8000
8000
8000
C000
6000
7F80
1F00
ENDCHAR
STARTCHAR 00B1
ENCODING 177
SWIDTH 660 0
DWIDTH 11 0
BBX 2 5 6 1
BITMAP
80
C0
C0
C0
40
ENDCHAR
STARTCHAR 00B2
ENCODING 178
SWIDTH 420 0
DWIDTH 7 0
BBX 8 14 0 0
BITMAP
06
08
06
08
00
00
00
00
00
03
01
01
01
FF
ENDCHAR
STARTCHAR 00B3
ENCODING 179
SWIDTH 600 0
DWIDTH 10 0
BBX 9 12 2 -6
BITMAP
7F00
9F00
3800
6000
4000
8000
8000
8000
C000
6000
7F80
1F00
ENDCHAR
STARTCHAR 00B4
ENCODING 180
SWIDTH 1080 0
DWIDTH 18 0
BBX 16 14 3 -4
BITMAP
0010
0000
0000
0000
0000
000E
0111
00A1
80C1
80FF
8100
8100
C200
7C00
ENDCHAR
STARTCHAR 00CA
ENCODING 202
SWIDTH 360 0
DWIDTH 6 0
BBX 1 1 0 0
BITMAP
00
ENDCHAR
STARTCHAR 00E0
ENCODING 224
SWIDTH 600 0
DWIDTH 10 0
BBX 11 11 0 0
BITMAP
1800
0800
0840
0800
0400
0400
05C0
0A20
0420
0820
FFE0
ENDCHAR
STARTCHAR 00E1
ENCODING 225
SWIDTH 600 0
DWIDTH 10 0
BBX 9 14 2 -6
BITMAP
7800
6000
8000
C600
7C00
3000
4000
4000
8000
8000
8000
C000
7F80
1E00
ENDCHAR
STARTCHAR 00E2
ENCODING 226
SWIDTH 600 0
DWIDTH 10 0
BBX 10 12 2 -6
BITMAP
1C00
1C00
3C00
3000
6800
47C0
8000
8000
8000
4000
7E00
1E00
ENDCHAR
STARTCHAR 00E3
ENCODING 227
SWIDTH 540 0
DWIDTH 9 0
BBX 11 5 0 0
BITMAP
0F00
0F80
0380
0F00
FDE0
ENDCHAR
STARTCHAR 00E4
ENCODING 228
SWIDTH 600 0
DWIDTH 10 0
BBX 11 6 0 0
BITMAP
0780
0C00
0800
0800
0CE0
FF80
ENDCHAR
STARTCHAR 00E5
ENCODING 229
SWIDTH 600 0
DWIDTH 10 0
BBX 9 14 2 -6
BITMAP
7800
C000
8000
C600
7C00
3000
4000
4000
8000
8000
8000
C000
7F80
1E00
ENDCHAR
STARTCHAR 00E6
ENCODING 230
SWIDTH 600 0
DWIDTH 10 0
BBX 10 16 2 -6
BITMAP
0800
0000
0000
0000
1C00
1C00
3C00
3000
6800
47C0
8000
8000
8000
4000
7E00
1E00
ENDCHAR
STARTCHAR 00E7
ENCODING 231
SWIDTH 540 0
DWIDTH 9 0
BBX 11 10 0 0
BITMAP
0200
0000
0000
0000
0000
0F00
0F80
0380
0F00
FDE0
ENDCHAR
STARTCHAR 00E8
ENCODING 232
SWIDTH 600 0
DWIDTH 10 0
BBX 11 10 0 0
BITMAP
0200
0000
0000
0000
0780
0C00
0800
0800
0CE0
FF80
ENDCHAR
STARTCHAR 00E9
ENCODING 233
SWIDTH 840 0
DWIDTH 14 0
BBX 13 10 3 0
BITMAP
0040
0020
0000
0030
8050
8048
8048
8078
C018
3FF0
ENDCHAR
STARTCHAR 00EA
ENCODING 234
SWIDTH 420 0
DWIDTH 7 0
BBX 8 10 0 0
BITMAP
04
00
00
06
09
09
09
0F
01
FF
ENDCHAR
STARTCHAR 00EB
ENCODING 235
SWIDTH 720 0
DWIDTH 12 0
BBX 10 14 3 -4
BITMAP
0900
0900
0000
0000
0000
0180
02C0
0240
8340
81C0
8040
8040
C180
7F00
ENDCHAR
STARTCHAR 00EC
ENCODING 236
SWIDTH 420 0
DWIDTH 7 0
BBX 8 10 0 0
BITMAP
12
00
00
06
09
09
09
0F
01
FF
ENDCHAR
STARTCHAR 00ED
ENCODING 237
SWIDTH 900 0
DWIDTH 15 0
BBX 14 12 3 0
BITMAP
000C
0078
00C0
0100
0100
01C0
0060
8030
8018
8008
8008
FFF8
ENDCHAR
STARTCHAR 00EE
ENCODING 238
SWIDTH 480 0
DWIDTH 8 0
BBX 10 12 0 0
BITMAP
00C0
03C0
0E00
1000
1800
0C00
0600
0300
0100
0080
0080
FF80
ENDCHAR
STARTCHAR 00EF
ENCODING 239
SWIDTH 900 0
DWIDTH 15 0
BBX 14 15 3 0
BITMAP
0008
0038
00C0
011C
0070
0180
0100
0180
01C0
0060
8030
8018
8008
8008
FFF8
ENDCHAR
STARTCHAR 00F0
ENCODING 240
SWIDTH 480 0
DWIDTH 8 0
BBX 10 15 0 0
BITMAP
0080
0300
0C00
01C0
0700
0C00
1000
1800
0C00
0600
0300
0100
0080
0080
FF80
ENDCHAR
STARTCHAR 00F1
ENCODING 241
SWIDTH 600 0
DWIDTH 10 0
BBX 9 14 3 -4
BITMAP
0180
0180
0100
0100
0100
0100
0100
0100
8100
8100
8100
8100
C600
7C00
ENDCHAR
STARTCHAR 00F2
ENCODING 242
SWIDTH 600 0
DWIDTH 10 0
BBX 9 12 3 -1
BITMAP
8000
C180
E100
7100
1100
0900
0A00
0600
0400
0A00
1200
1E00
ENDCHAR
STARTCHAR 00F3
ENCODING 243
SWIDTH 360 0
DWIDTH 6 0
BBX 7 11 0 0
BITMAP
04
06
04
02
02
02
02
02
02
02
FE
ENDCHAR
STARTCHAR 00F4
ENCODING 244
SWIDTH 540 0
DWIDTH 9 0
BBX 8 11 2 -6
BITMAP
18
2C
06
3F
47
80
40
40
40
40
40
ENDCHAR
STARTCHAR 00F5
ENCODING 245
SWIDTH 480 0
DWIDTH 8 0
BBX 9 5 0 0
BITMAP
0300
0500
0480
0680
FB80
ENDCHAR
STARTCHAR 00F6
ENCODING 246
SWIDTH 660 0
DWIDTH 11 0
BBX 9 14 3 -4
BITMAP
0800
0000
0000
0000
0000
0000
0180
0180
8080
8080
8080
8080
C300
7E00
ENDCHAR
STARTCHAR 00F7
ENCODING 247
SWIDTH 420 0
DWIDTH 7 0
BBX 8 10 0 0
BITMAP
08
00
00
00
00
03
01
01
01
FF
ENDCHAR
STARTCHAR 00F8
ENCODING 248
SWIDTH 420 0
DWIDTH 7 0
BBX 6 9 2 -4
BITMAP
1C
24
24
34
1C
04
0C
18
F0
ENDCHAR
STARTCHAR 00F9
ENCODING 249
SWIDTH 420 0
DWIDTH 7 0
BBX 5 7 2 0
BITMAP
20
30
50
98
88
88
F0
ENDCHAR
STARTCHAR 00FA
ENCODING 250
SWIDTH 480 0
DWIDTH 8 0
BBX 10 10 0 -4
BITMAP
0600
0900
0900
0900
1200
FFC0
1200
0900
0900
0600
ENDCHAR
STARTCHAR 00FB
ENCODING 251
SWIDTH 600 0
DWIDTH 10 0
BBX 11 9 0 0
BITMAP
0100
0180
03C0
06C0
04A0
04A0
0720
FF20
FDC0
ENDCHAR
STARTCHAR 00FC
ENCODING 252
SWIDTH 780 0
DWIDTH 13 0
BBX 11 7 3 -6
BITMAP
81E0
8200
8380
83C0
8080
C180
7E00
ENDCHAR
STARTCHAR 00FD
ENCODING 253
SWIDTH 720 0
DWIDTH 12 0
BBX 11 9 2 -3
BITMAP
00E0
0120
0200
4200
4300
43C0
C040
40C0
7F00
ENDCHAR
STARTCHAR 00FE
ENCODING 254
SWIDTH 420 0
DWIDTH 7 0
BBX 8 10 0 -5
BITMAP
03
01
01
01
FF
00
00
00
24
36
ENDCHAR
STARTCHAR 0152
ENCODING 338
SWIDTH 360 0
DWIDTH 6 0
BBX 5 10 1 0
BITMAP
70
48
C8
D8
60
20
20
00
30
30
ENDCHAR
STARTCHAR 0153
ENCODING 339
SWIDTH 600 0
DWIDTH 10 0
BBX 9 12 2 -6
BITMAP
7F00
9F00
3800
6000
4100
9900
8000
8000
C600
6000
7F80
1F00
ENDCHAR
STARTCHAR 0160
ENCODING 352
SWIDTH 360 0
DWIDTH 6 0
BBX 3 5 4 7
BITMAP
40
80
80
80
E0
ENDCHAR
STARTCHAR 0161
ENCODING 353
SWIDTH 600 0
DWIDTH 10 0
BBX 9 12 2 -6
BITMAP
7F00
9F00
3800
6000
4000
8000
8400
8000
C000
6000
7F80
1F00
ENDCHAR
STARTCHAR 0178
ENCODING 376
SWIDTH 720 0
DWIDTH 12 0
BBX 13 6 0 0
BITMAP
0300
0C80
0040
0060
0030
FFF8
ENDCHAR
STARTCHAR 017D
ENCODING 381
SWIDTH 420 0
DWIDTH 7 0
BBX 8 14 0 0
BITMAP
06
08
06
08
00
00
00
00
00
03
01
01
01
FF
ENDCHAR
STARTCHAR 017E
ENCODING 382
SWIDTH 600 0
DWIDTH 10 0
BBX 9 12 2 -6
BITMAP
7F00
9F00
3800
6000
4000
8000
8000
8000
C000
6000
7F80
1F00
ENDCHAR
STARTCHAR 0192
ENCODING 402
SWIDTH 660 0
DWIDTH 11 0
BBX 8 11 3 0
BITMAP
01
CF
F8
60
60
20
30
30
10
10
10
ENDCHAR
STARTCHAR 02C6
ENCODING 710
SWIDTH 660 0
DWIDTH 11 0
BBX 8 10 3 0
BITMAP
10
10
28
28
2C
44
46
C3
83
01
ENDCHAR
STARTCHAR 02C9
ENCODING 713
SWIDTH 600 0
DWIDTH 10 0
BBX 11 11 0 0
BITMAP
1800
0800
0800
0800
0400
0400
05C0
0A20
0420
0820
FFE0
ENDCHAR
STARTCHAR 02DC
ENCODING 732
SWIDTH 780 0
DWIDTH 13 0
BBX 12 13 3 0
BITMAP
0400
0000
0000
0900
0000
0000
0000
0000
8030
8030
8010
C010
7FF0
ENDCHAR
STARTCHAR 2010
ENCODING 8208
SWIDTH 600 0
DWIDTH 10 0
BBX 9 1 2 5
BITMAP
FF80
ENDCHAR
STARTCHAR 2013
ENCODING 8211
SWIDTH 780 0
DWIDTH 13 0
BBX 12 10 3 0
BITMAP
0900
0100
0000
0000
0000
8030
8030
8010
C010
7FF0
ENDCHAR
STARTCHAR 2014
ENCODING 8212
SWIDTH 420 0
DWIDTH 7 0
BBX 8 10 0 0
BITMAP
12
12
00
00
00
03
01
01
01
FF
ENDCHAR
STARTCHAR 2018
ENCODING 8216
SWIDTH 360 0
DWIDTH 6 0
BBX 4 10 4 0
BITMAP
C0
C0
40
40
40
40
40
40
60
70
ENDCHAR
STARTCHAR 2019
ENCODING 8217
SWIDTH 780 0
DWIDTH 13 0
BBX 12 11 3 -5
BITMAP
0020
8030
8010
8010
C010
7FF0
0000
0000
0000
0000
0600
ENDCHAR
STARTCHAR 201A
ENCODING 8218
SWIDTH 660 0
DWIDTH 11 0
BBX 6 10 4 1
BITMAP
80
C4
78
60
20
30
10
10
10
10
ENDCHAR
STARTCHAR 201C
ENCODING 8220
SWIDTH 420 0
DWIDTH 7 0
BBX 8 10 0 -5
BITMAP
03
01
01
01
FF
00
00
00
00
0C
ENDCHAR
STARTCHAR 201D
ENCODING 8221
SWIDTH 780 0
DWIDTH 13 0
BBX 12 12 3 -6
BITMAP
0020
8030
8010
8010
C010
7FF0
0000
0000
1D80
0000
0000
0600
ENDCHAR
STARTCHAR 201E
ENCODING 8222
SWIDTH 660 0
DWIDTH 11 0
BBX 7 11 3 0
BITMAP
0C
50
F2
7E
20
30
10
10
10
10
10
ENDCHAR
STARTCHAR 2020
ENCODING 8224
SWIDTH 660 0
DWIDTH 11 0
BBX 6 10 4 1
BITMAP
30
C8
80
84
FC
30
20
20
40
40
ENDCHAR
STARTCHAR 2021
ENCODING 8225
SWIDTH 660 0
DWIDTH 11 0
BBX 8 10 3 1
BITMAP
81
81
C3
62
64
24
18
18
08
08
ENDCHAR
STARTCHAR 2022
ENCODING 8226
SWIDTH 420 0
DWIDTH 7 0
BBX 8 11 0 -6
BITMAP
03
01
01
01
FF
00
00
00
24
00
18
ENDCHAR
STARTCHAR 2026
ENCODING 8230
SWIDTH 660 0
DWIDTH 11 0
BBX 7 11 3 0
BITMAP
10
18
1C
2C
2E
46
42
82
82
DA
7C
ENDCHAR
STARTCHAR 2030
ENCODING 8240
SWIDTH 660 0
DWIDTH 11 0
BBX 6 11 4 0
BITMAP
30
50
88
88
F8
08
08
08
0C
0C
04
ENDCHAR
STARTCHAR 2039
ENCODING 8249
SWIDTH 180 0
DWIDTH 3 0
BBX 5 1 0 0
BITMAP
F8
ENDCHAR
STARTCHAR 203A
ENCODING 8250
SWIDTH 720 0
DWIDTH 12 0
BBX 13 11 0 -5
BITMAP
0300
0C80
0040
0060
0030
FFF8
0000
0000
0000
0000
0200
ENDCHAR
STARTCHAR 20AC
ENCODING 8364
SWIDTH 660 0
DWIDTH 11 0
BBX 2 5 6 1
BITMAP
80
C0
C0
C0
40
ENDCHAR
STARTCHAR 2122
ENCODING 8482
SWIDTH 420 0
DWIDTH 7 0
BBX 8 13 0 0
BITMAP
08
00
00
10
00
00
00
00
03
01
01
01
FF
ENDCHAR
STARTCHAR 2212
ENCODING 8722
SWIDTH 1080 0
DWIDTH 18 0
BBX 16 14 3 -4
BITMAP
0010
0000
0000
0000
0000
000E
0111
00A1
80C1
80FF
8100
8100
C200
7C00
ENDCHAR
ENDFONT

